<svg width="145" height="145" xmlns="http://www.w3.org/2000/svg" class="h-20 w-auto" fill="none">
 <mask id="mask0_54_296" maskUnits="userSpaceOnUse" x="0" y="0" width="145" height="145">
  <path fill-rule="evenodd" clip-rule="evenodd" d="m144.491,45.4541c0,-1.7041 0.001,-3.4085 -0.01,-5.1128c-0.008,-1.4357 -0.025,-2.8711 -0.064,-4.3061c-0.084,-3.1277 -0.269,-6.2822 -0.825,-9.3751c-0.564,-3.1374 -1.485,-6.0574 -2.937,-8.9081c-1.427,-2.8019 -3.291,-5.3658 -5.516,-7.5887c-2.224,-2.22277 -4.788,-4.08583 -7.591,-5.51213c-2.854,-1.45209 -5.777,-2.37299 -8.918,-2.93693c-3.093,-0.5554 -6.249,-0.73954 -9.376,-0.82404c-1.436,-0.03885 -2.872,-0.05522 -4.309,-0.06411c-1.705,-0.01045 -3.41,-0.00958 -5.1154,-0.00958l-19.7991,-0.0709l-14.8083,0l-19.4488,0.0709c-1.7085,0 -3.417,-0.00087 -5.1255,0.00958c-1.4394,0.00889 -2.8781,0.02526 -4.3169,0.06411c-3.135,0.0845 -6.2975,0.26882 -9.398,0.82491c-3.1451,0.56376 -6.0726,1.48432 -8.9301,2.93536c-2.8089,1.42647 -5.379,3.28971 -7.6076,5.51283c-2.2282,2.2227 -4.09596,4.7861 -5.52574,7.5875c-1.45574,2.852 -2.37873,5.7738 -2.94423,8.913c-0.55679,3.0916 -0.74128,6.2451 -0.82612,9.3714c-0.03868,1.4352 -0.0554,2.8705 -0.06412,4.3061c-0.01045,1.7045 -0.09808,3.8217 -0.09808,5.5261l0.00052,19.1794l-0.00052,14.9668l0.0885,19.5869c0,1.7065 -0.00069,3.4135 0.00958,5.1195c0.00872,1.438 0.02544,2.875 0.06429,4.312c0.08467,3.132 0.26951,6.291 0.82682,9.388c0.56533,3.142 1.48814,6.066 2.94266,8.92c1.42996,2.806 3.29806,5.373 5.52644,7.599c2.2284,2.226 4.7979,4.092 7.6062,5.52c2.8592,1.454 5.7881,2.376 8.9351,2.941c3.0991,0.556 6.2606,0.741 9.3944,0.825c1.4388,0.039 2.8777,0.056 4.317,0.064c1.7086,0.011 3.4169,0.01 5.1254,0.01l19.6246,0.001l14.845,0l19.5866,-0.001c1.7054,0 3.4104,0.001 5.1154,-0.01c1.437,-0.008 2.873,-0.025 4.309,-0.064c3.129,-0.084 6.285,-0.269 9.38,-0.826c3.139,-0.564 6.06,-1.486 8.913,-2.939c2.803,-1.429 5.368,-3.294 7.592,-5.521c2.224,-2.225 4.088,-4.792 5.515,-7.598c1.453,-2.855 2.374,-5.781 2.939,-8.925c0.555,-3.095 0.74,-6.253 0.824,-9.384c0.039,-1.437 0.056,-2.874 0.064,-4.312c0.011,-1.706 0.01,-3.413 0.01,-5.1195c0,0 -0.001,-19.2411 -0.001,-19.5869l0,-14.9825c0,-0.2554 0.001,-19.577 0.001,-19.577z" fill="white" id="svg_1"/>
 </mask>

 <g>
  <title>Layer 1</title>
  <g mask="url(#mask0_54_296)" id="svg_2">
   <rect x="0.41455" y="-6.74585" width="149.477" height="158.537" fill="#AACFD0" id="svg_3"/>
   <path d="m103.609,36.6948l-50.0267,0c-6.0496,0 -10.9539,4.8998 -10.9539,10.944c0,6.0442 4.9043,10.944 10.9539,10.944l50.0267,0c6.05,0 10.954,-4.8998 10.954,-10.944c0,-6.0442 -4.904,-10.944 -10.954,-10.944z" fill="white" id="svg_4"/>
   <path d="m76.9348,65.1489l-33.3432,0c-6.0497,0 -10.9539,4.8998 -10.9539,10.944c0,6.0442 4.9042,10.944 10.9539,10.944l33.3432,0c6.0497,0 10.954,-4.8998 10.954,-10.944c0,-6.0442 -4.9043,-10.944 -10.954,-10.944z" fill="white" id="svg_5"/>
   <path d="m80.1608,104.571c0,-6.0438 -4.9043,-10.9436 -10.954,-10.9436c-6.0496,0 -10.9539,4.8998 -10.9539,10.9436c0,6.045 4.9043,10.944 10.9539,10.944c6.0497,0 10.954,-4.899 10.954,-10.944z" fill="white" id="svg_6"/>
  </g>
 </g>
</svg>